HIERARCHY
ROOT Hips
{
	OFFSET -3.958830 18.904000 13.208200
	CHANNELS 6 Xposition Yposition Zposition Zrotation Yrotation Xrotation 
	JOINT LHipJoint
	{
		OFFSET 0.000000 0.000000 0.000000
		CHANNELS 3 Zrotation Yrotation Xrotation
		JOINT LeftUpLeg
		{
			OFFSET 1.800000 -1.400000 0.085000
			CHANNELS 3 Zrotation Yrotation Xrotation
			JOINT LeftLeg
			{
				OFFSET 2.215000 -6.000000 0.000000
				CHANNELS 3 Zrotation Yrotation Xrotation
				JOINT LeftFoot
				{
					OFFSET 2.500000 -6.900000 0.000000
					CHANNELS 3 Zrotation Yrotation Xrotation
					JOINT LeftToeBase
					{
						OFFSET 0.200000 -0.500000 1.950000
						CHANNELS 3 Zrotation Yrotation Xrotation
						End Site
						{
							OFFSET 0.000000 0.000000 0.000000
						}
					}
				}
			}
		}
	}
	JOINT RHipJoint
	{
		OFFSET 0.000000 0.000000 0.000000
		CHANNELS 3 Zrotation Yrotation Xrotation
		JOINT RightUpLeg
		{
			OFFSET -1.800000 -1.400000 0.085000
			CHANNELS 3 Zrotation Yrotation Xrotation
			JOINT RightLeg
			{
				OFFSET -2.215000 -6.000000 0.000000
				CHANNELS 3 Zrotation Yrotation Xrotation
				JOINT RightFoot
				{
					OFFSET -2.500000 -6.900000 0.000000
					CHANNELS 3 Zrotation Yrotation Xrotation
					JOINT RightToeBase
					{
						OFFSET -0.200000 -0.500000 1.950000
						CHANNELS 3 Zrotation Yrotation Xrotation
						End Site
						{
							OFFSET 0.000000 0.000000 0.000000
						}
					}
				}
			}
		}
	}
	JOINT LowerBack
	{
		OFFSET 0.000000 0.000000 0.000000
		CHANNELS 3 Zrotation Yrotation Xrotation
		JOINT Spine
		{
			OFFSET -0.087000 1.940000 -0.288900
			CHANNELS 3 Zrotation Yrotation Xrotation
			JOINT Spine1
			{
				OFFSET 0.000000 1.950000 0.060000
				CHANNELS 3 Zrotation Yrotation Xrotation
				JOINT Neck
				{
					OFFSET 0.000000 0.000000 0.000000
					CHANNELS 3 Zrotation Yrotation Xrotation
					JOINT Neck1
					{
						OFFSET 0.000000 1.600000 0.340000
						CHANNELS 3 Zrotation Yrotation Xrotation
						JOINT Head
						{
							OFFSET 0.000000 1.667000 -0.240000
							CHANNELS 3 Zrotation Yrotation Xrotation
							End Site
							{
								OFFSET 0.000000 0.000000 0.000000
							}
						}
					}
				}
				JOINT LeftShoulder
				{
					OFFSET 0.000000 0.000000 0.000000
					CHANNELS 3 Zrotation Yrotation Xrotation
					JOINT LeftArm
					{
						OFFSET 2.700000 1.550000 -0.730000
						CHANNELS 3 Zrotation Yrotation Xrotation
						JOINT LeftForeArm
						{
							OFFSET 5.450000 0.000000 0.000000
							CHANNELS 3 Zrotation Yrotation Xrotation
							JOINT LeftHand
							{
								OFFSET 3.450000 0.000000 0.000000
								CHANNELS 3 Zrotation Yrotation Xrotation
								JOINT LeftHandIndex1
								{
									OFFSET 0.750000 0.000000 0.000000
									CHANNELS 3 Zrotation Yrotation Xrotation
									End Site
									{
										OFFSET 0.000000 0.000000 0.000000
									}
								}
							}
						}
					}
				}
				JOINT RightShoulder
				{
					OFFSET 0.000000 0.000000 0.000000
					CHANNELS 3 Zrotation Yrotation Xrotation
					JOINT RightArm
					{
						OFFSET -2.700000 1.550000 -0.730000
						CHANNELS 3 Zrotation Yrotation Xrotation
						JOINT RightForeArm
						{
							OFFSET -5.450000 0.000000 0.000000
							CHANNELS 3 Zrotation Yrotation Xrotation
							JOINT RightHand
							{
								OFFSET -3.450000 0.000000 0.000000
								CHANNELS 3 Zrotation Yrotation Xrotation
								JOINT RightHandIndex1
								{
									OFFSET -0.750000 0.000000 0.000000
									CHANNELS 3 Zrotation Yrotation Xrotation
									End Site
									{
										OFFSET 0.000000 0.000000 0.000000
									}
								}
							}
						}
					}
				}
			}
		}
	}
}
MOTION
Frames: 9
Frame Time: 0.016667
-0.084960 16.412010 -10.778530 -7.806469 -17.227257 -0.267186 -15.863802 14.356091 2.433812 10.414731 -4.546741 -23.703710 20.193683 0.053880 38.374501 -0.204990 6.785118 2.209160 -0.021180 -0.434260 0.099400 17.670883 -9.246999 3.308296 -13.492035 4.862102 -25.891961 23.469393 -14.618239 32.355986 -0.615152 -6.884958 1.971680 -0.156710 0.526120 0.239170 -1.488755 -5.508236 -7.292815 -20.097614 12.484857 11.346995 29.471061 5.322288 9.218839 -10.143506 4.196658 -8.031488 2.317916 2.186231 38.189958 3.715630 4.899200 -2.799090 6.712193 -4.025591 4.960771 3.466819 -16.491573 -0.620584 27.150405 -2.221710 -2.419241 -4.262196 2.961547 0.482240 0.341440 -0.265150 -0.025820 15.472088 1.252233 3.706425 53.734282 -9.462096 -14.838152 2.219665 22.040457 -1.383384 1.974614 -1.204027 -0.376440 0.210360 0.305450 -0.266250 
-0.067200 16.401330 -10.789610 -7.470218 -17.011158 -0.085216 -15.833365 14.270996 2.515663 10.067591 -5.020371 -24.086016 19.939366 0.007852 38.892597 -0.214350 6.875206 2.200808 -0.077260 -0.504270 0.038790 17.696379 -9.231213 3.393522 -14.246928 4.714194 -26.937518 23.774395 -15.028942 32.877473 -0.608110 -7.037640 1.921398 -0.175690 0.598610 0.227370 -1.573165 -5.449638 -7.412985 -19.959107 11.398170 12.154839 26.873463 4.881026 8.034089 -10.188907 3.382184 -8.294390 1.000829 3.463585 37.493709 5.100930 4.657900 -1.926980 6.027066 -4.873156 4.678630 0.889340 -18.355350 -2.452571 35.876914 3.195851 -2.350238 -4.434815 2.915198 0.478910 0.365390 -0.311070 -0.023480 16.180278 2.395595 3.978142 55.088460 -9.290317 -14.653953 2.422938 20.372459 -1.360168 1.993688 -1.155035 -0.420130 0.247290 0.351000 -0.253180 
-0.042720 16.392160 -10.803760 -7.338062 -16.717698 0.119268 -15.805109 14.182234 2.626012 9.969180 -5.562281 -24.734540 19.506196 0.018723 39.744892 -0.247923 7.058785 2.180279 -0.169180 -0.623730 -0.042150 17.722228 -9.204578 3.471488 -14.748196 4.576594 -28.116671 23.716991 -15.470823 33.715681 -0.596450 -7.191265 1.884884 -0.209660 0.717510 0.204620 -1.655681 -5.425938 -7.557541 -19.413903 10.064703 13.328243 23.873509 4.398512 6.608029 -10.158318 2.631003 -8.516131 -0.243650 4.809291 36.683428 6.694420 4.384310 -1.095180 5.603384 -5.555347 4.416260 -3.988305 -19.992033 -4.465959 49.565330 3.881179 -3.177377 -4.539993 2.893849 0.500280 0.404600 -0.373110 -0.018560 16.512537 3.126514 4.072995 56.536073 -8.837128 -14.358616 3.416883 18.566736 -1.212391 1.996765 -1.059300 -0.507830 0.333850 0.426000 -0.245450 
-0.023430 16.382690 -10.813230 -6.975480 -16.493161 0.543223 -15.784225 14.060045 2.757240 9.659325 -6.134901 -25.738612 18.998620 0.064243 40.481565 -0.276940 7.179583 2.160477 -0.243760 -0.702170 -0.141060 17.756570 -9.134600 3.548120 -15.309752 4.381484 -29.634699 23.534966 -15.951778 34.752945 -0.574028 -7.380001 1.833798 -0.220070 0.819260 0.171130 -1.748397 -5.437999 -7.675323 -19.066172 8.742776 13.952970 20.792988 3.887516 5.528487 -10.184901 1.631394 -8.576527 -1.896144 6.124721 35.175611 8.650530 3.619680 -0.185830 5.078178 -5.593693 4.307025 -8.533580 -21.416738 -5.447619 62.544949 0.168168 -5.960680 -4.546940 2.886778 0.487400 0.439130 -0.448100 -0.014580 17.012758 3.379761 3.995808 57.752273 -8.580413 -14.245460 5.136528 17.477099 -1.095794 1.993415 -1.004529 -0.572780 0.396720 0.493380 -0.224960 
0.000230 16.374230 -10.814630 -6.448743 -16.369413 0.843240 -15.781328 14.017055 2.886681 9.194872 -6.744690 -26.385613 18.437340 0.059177 41.199192 -0.302143 7.287486 2.149584 -0.264440 -0.717630 -0.222320 17.773595 -9.021073 3.602466 -15.980656 4.026526 -31.221060 22.844078 -16.415129 36.171939 -0.567100 -7.584786 1.773711 -0.192030 0.910230 0.138070 -1.783589 -5.688213 -7.765013 -18.791692 6.939377 14.516571 17.732960 3.060047 4.346058 -10.478535 0.063567 -8.328194 -4.815082 7.650298 33.284085 11.058160 2.380700 0.107870 3.907310 -4.685256 4.121955 -14.199329 -24.463194 -5.118165 76.030439 -3.043019 -9.922305 -4.514352 2.856225 0.470860 0.458630 -0.511740 0.017210 18.691062 2.939484 3.678900 57.121100 -8.821805 -14.122499 7.531427 17.523584 -0.946549 1.959659 -0.992427 -0.622500 0.465150 0.528820 -0.193700 
0.020180 16.376440 -10.817080 -6.229069 -16.354030 0.885800 -15.785202 14.052271 2.987282 9.300390 -7.174087 -26.784985 17.590161 0.195930 41.722325 -0.232376 7.251238 2.174261 -0.157230 -0.564240 -0.223630 17.773463 -8.926983 3.623174 -15.922739 3.725828 -32.553883 21.525989 -16.677679 37.958018 -0.625407 -7.729843 1.736128 -0.126020 0.904460 0.131400 -1.773056 -6.028767 -7.826853 -18.175143 4.858553 15.548101 14.693148 2.045952 3.024830 -10.586717 -2.053276 -8.074548 -9.009560 9.194010 31.603639 13.469250 1.217130 -0.625920 0.838971 -3.377679 3.818120 -20.652200 -27.569399 -3.382865 89.630974 -7.023789 -15.954212 -4.384085 2.871972 0.423930 0.423050 -0.491880 0.094790 21.920568 2.632669 3.546312 54.784036 -9.933934 -14.130026 10.577387 18.753858 -0.699475 1.933348 -1.079788 -0.555990 0.471620 0.450730 -0.131760 
0.045250 16.368220 -10.817000 -6.381946 -16.588488 1.079977 -15.777069 14.031524 3.024485 9.793648 -7.334776 -27.134871 16.712698 0.492975 42.486531 -0.145593 7.256279 2.183800 -0.036950 -0.382270 -0.223620 17.797967 -8.839564 3.681730 -15.701385 3.615166 -34.217863 20.310400 -17.022330 40.022054 -0.712743 -7.944647 1.684805 -0.049120 0.885850 0.117650 -1.823617 -6.177162 -7.872497 -16.653082 2.822599 16.591657 11.116363 1.090234 1.998907 -10.115246 -4.210478 -7.881394 -13.106435 10.278651 29.524809 15.055800 0.182850 -1.564400 -2.400884 -1.597346 3.380844 -27.248540 -29.391465 -0.390666 101.224053 -12.839792 -25.649393 -4.245241 2.874517 0.372580 0.383640 -0.461930 0.184490 24.065680 2.163728 3.363017 53.065632 -10.396613 -13.944988 14.551864 20.071647 -0.294046 1.918584 -1.185247 -0.480900 0.480120 0.356630 -0.065860 
0.069510 16.364960 -10.816340 -6.652601 -16.901070 1.183885 -15.723035 13.977462 3.034668 10.484244 -7.353784 -27.274376 15.519423 1.011899 43.123422 -0.018363 7.171292 2.210226 0.125290 -0.139980 -0.182750 17.858660 -8.840024 3.740905 -15.307056 3.472361 -35.863194 18.704440 -17.171929 42.199327 -0.808643 -8.122391 1.652746 0.033560 0.804580 0.094390 -1.991813 -6.098910 -7.923641 -14.610893 0.766458 18.297833 7.300824 -0.212445 0.570624 -9.489000 -6.152916 -7.747401 -16.925613 10.893345 27.440267 16.407350 -0.668980 -2.810960 -5.273768 0.429779 2.939211 -34.461375 -30.557410 3.092939 110.259064 -18.541324 -37.555698 -4.060652 2.924106 0.307130 0.314150 -0.402450 0.275870 25.607114 1.077375 2.875847 51.938670 -10.548742 -13.564428 18.744026 21.662769 0.333621 1.949358 -1.321039 -0.360230 0.446710 0.209650 0.002370 
0.087990 16.371200 -10.813740 -6.709192 -17.608237 1.149109 -15.663618 13.939983 3.003781 10.946579 -7.220215 -26.976426 14.330948 1.593693 43.441960 0.130463 7.054840 2.247865 0.262030 0.066160 -0.153690 17.918143 -8.894132 3.782396 -14.740986 3.421511 -37.380924 16.592151 -16.907761 44.338705 -0.887060 -8.222333 1.635668 0.084320 0.725160 0.094730 -2.158567 -5.916147 -7.943788 -13.157816 -0.878076 19.612148 4.348782 -1.582361 -0.530502 -8.555532 -7.847476 -7.889395 -20.524192 11.652917 26.046470 17.579290 -1.225170 -3.265860 -8.616351 1.785650 2.710321 -40.859035 -29.342275 5.440053 117.626513 -25.168236 -52.603196 -3.886729 2.986473 0.246580 0.245330 -0.329800 0.366120 27.152003 0.598879 2.733860 50.491019 -10.743528 -13.006382 22.972633 23.860861 1.312993 1.998334 -1.474870 -0.231120 0.387630 0.070160 0.078090 
